<svg width="421" height="76" viewBox="0 0 421 76" fill="none" xmlns="http://www.w3.org/2000/svg">
<path d="M30 75.5C25.4 75.5 21.2333 74.9667 17.5 73.9C13.8333 72.7667 10.5667 71.1667 7.7 69.1C4.83333 66.9667 2.26667 64.4667 1.41561e-07 61.6L10.3 49.9C13.6333 54.3667 16.9667 57.3667 20.3 58.9C23.7 60.4333 27.2 61.2 30.8 61.2C32.6 61.2 34.2333 60.9667 35.7 60.5C37.1667 60.0333 38.3 59.3667 39.1 58.5C39.9 57.5667 40.3 56.4333 40.3 55.1C40.3 54.1 40.0333 53.2 39.5 52.4C39.0333 51.6 38.3667 50.9 37.5 50.3C36.6333 49.7 35.6 49.1667 34.4 48.7C33.2 48.1667 31.9333 47.7333 30.6 47.4C29.2667 47 27.9 46.6667 26.5 46.4C22.6333 45.5333 19.2667 44.4667 16.4 43.2C13.5333 41.9333 11.1333 40.4 9.2 38.6C7.33333 36.7333 5.93333 34.6333 5 32.3C4.06667 29.9 3.6 27.2333 3.6 24.3C3.6 21.1667 4.3 18.3 5.7 15.7C7.16667 13.0333 9.1 10.7667 11.5 8.9C13.9667 6.96666 16.8 5.49999 20 4.5C23.2 3.43333 26.5333 2.9 30 2.9C34.6 2.9 38.5333 3.4 41.8 4.4C45.1333 5.33333 47.9667 6.7 50.3 8.5C52.7 10.3 54.7333 12.4667 56.4 15L45.9 25.1C44.5 23.3667 42.9667 21.9333 41.3 20.8C39.7 19.6667 37.9667 18.8 36.1 18.2C34.3 17.6 32.4333 17.3 30.5 17.3C28.5 17.3 26.7667 17.5667 25.3 18.1C23.9 18.5667 22.8 19.2667 22 20.2C21.2 21.0667 20.8 22.1333 20.8 23.4C20.8 24.5333 21.1333 25.5 21.8 26.3C22.4667 27.1 23.3667 27.8333 24.5 28.5C25.6333 29.1 26.9333 29.6333 28.4 30.1C29.8667 30.5 31.4 30.8333 33 31.1C36.6667 31.8333 39.9667 32.8 42.9 34C45.9 35.2 48.4667 36.6667 50.6 38.4C52.8 40.1333 54.4667 42.2 55.6 44.6C56.8 46.9333 57.4 49.6667 57.4 52.8C57.4 57.6667 56.2 61.8 53.8 65.2C51.4667 68.5333 48.2333 71.1 44.1 72.9C40.0333 74.6333 35.3333 75.5 30 75.5ZM68.5789 74.5V0.499999H84.5789V74.5H68.5789ZM117.473 75.4C113.007 75.4 109.007 74.2333 105.473 71.9C102.007 69.5 99.2401 66.2333 97.1734 62.1C95.1068 57.9 94.0734 53.1667 94.0734 47.9C94.0734 42.5 95.1068 37.7333 97.1734 33.6C99.2401 29.4667 102.073 26.2333 105.673 23.9C109.273 21.5 113.373 20.3 117.973 20.3C120.507 20.3 122.807 20.6667 124.873 21.4C127.007 22.1333 128.873 23.1667 130.473 24.5C132.073 25.7667 133.44 27.2667 134.573 29C135.707 30.6667 136.54 32.4667 137.073 34.4L133.773 34V21.4H149.673V74.5H133.473V61.7L137.073 61.6C136.54 63.4667 135.673 65.2333 134.473 66.9C133.273 68.5667 131.807 70.0333 130.073 71.3C128.34 72.5667 126.407 73.5667 124.273 74.3C122.14 75.0333 119.873 75.4 117.473 75.4ZM121.873 61.9C124.34 61.9 126.473 61.3333 128.273 60.2C130.073 59.0667 131.473 57.4667 132.473 55.4C133.473 53.2667 133.973 50.7667 133.973 47.9C133.973 45.0333 133.473 42.5667 132.473 40.5C131.473 38.3667 130.073 36.7333 128.273 35.6C126.473 34.4 124.34 33.8 121.873 33.8C119.473 33.8 117.373 34.4 115.573 35.6C113.84 36.7333 112.473 38.3667 111.473 40.5C110.473 42.5667 109.973 45.0333 109.973 47.9C109.973 50.7667 110.473 53.2667 111.473 55.4C112.473 57.4667 113.84 59.0667 115.573 60.2C117.373 61.3333 119.473 61.9 121.873 61.9ZM187.091 75.5C181.958 75.5 177.358 74.3 173.291 71.9C169.225 69.5 165.991 66.2333 163.591 62.1C161.258 57.9 160.091 53.1667 160.091 47.9C160.091 42.6333 161.258 37.9333 163.591 33.8C165.991 29.6 169.225 26.3 173.291 23.9C177.358 21.5 181.958 20.3 187.091 20.3C191.825 20.3 196.158 21.1333 200.091 22.8C204.091 24.4667 207.258 26.8 209.591 29.8L200.891 40.2C199.958 39.1333 198.858 38.1333 197.591 37.2C196.325 36.2667 194.925 35.5333 193.391 35C191.858 34.4667 190.258 34.2 188.591 34.2C186.058 34.2 183.825 34.8 181.891 36C179.958 37.1333 178.458 38.7333 177.391 40.8C176.325 42.8667 175.791 45.2333 175.791 47.9C175.791 50.4333 176.325 52.7333 177.391 54.8C178.525 56.8667 180.058 58.5 181.991 59.7C183.925 60.9 186.125 61.5 188.591 61.5C190.325 61.5 191.925 61.3 193.391 60.9C194.858 60.4333 196.191 59.7667 197.391 58.9C198.658 58.0333 199.825 56.9667 200.891 55.7L209.491 66.2C207.225 69.0667 204.058 71.3333 199.991 73C195.991 74.6667 191.691 75.5 187.091 75.5ZM233.684 58.9L227.784 46.9L252.584 21.4H273.684L233.684 58.9ZM218.284 74.5V0.499999H234.284V74.5H218.284ZM254.284 74.5L235.584 50.3L246.884 41.5L273.184 74.5H254.284ZM303.935 75.5C298.068 75.5 292.968 74.3333 288.635 72C284.302 69.6 280.935 66.3667 278.535 62.3C276.135 58.1667 274.935 53.4667 274.935 48.2C274.935 44.1333 275.602 40.4 276.935 37C278.268 33.6 280.135 30.6667 282.535 28.2C284.935 25.6667 287.768 23.7333 291.035 22.4C294.368 21 298.002 20.3 301.935 20.3C305.668 20.3 309.068 20.9667 312.135 22.3C315.268 23.6333 317.968 25.5 320.235 27.9C322.502 30.3 324.235 33.1333 325.435 36.4C326.635 39.6667 327.168 43.2333 327.035 47.1L326.935 51.4H284.635L282.335 42.4H313.935L312.235 44.3V42.3C312.102 40.6333 311.568 39.1667 310.635 37.9C309.768 36.5667 308.602 35.5333 307.135 34.8C305.668 34.0667 304.002 33.7 302.135 33.7C299.535 33.7 297.302 34.2333 295.435 35.3C293.635 36.3 292.268 37.8 291.335 39.8C290.402 41.7333 289.935 44.1333 289.935 47C289.935 49.9333 290.535 52.5 291.735 54.7C293.002 56.8333 294.802 58.5 297.135 59.7C299.535 60.9 302.368 61.5 305.635 61.5C307.902 61.5 309.902 61.1667 311.635 60.5C313.435 59.8333 315.368 58.7 317.435 57.1L324.935 67.7C322.868 69.5 320.668 70.9667 318.335 72.1C316.002 73.2333 313.602 74.0667 311.135 74.6C308.735 75.2 306.335 75.5 303.935 75.5ZM337.229 74.5V21.4H352.429L353.129 38.7L350.129 35.4C350.929 32.5333 352.229 29.9667 354.029 27.7C355.896 25.4333 358.062 23.6333 360.529 22.3C362.996 20.9667 365.629 20.3 368.429 20.3C369.629 20.3 370.729 20.4 371.729 20.6C372.796 20.8 373.762 21.0333 374.629 21.3L370.229 39C369.496 38.5333 368.496 38.1667 367.229 37.9C366.029 37.5667 364.762 37.4 363.429 37.4C361.962 37.4 360.596 37.6667 359.329 38.2C358.062 38.6667 356.996 39.3667 356.129 40.3C355.262 41.2333 354.562 42.3333 354.029 43.6C353.562 44.8667 353.329 46.3 353.329 47.9V74.5H337.229ZM382.737 74.5V21.4H397.937L398.637 38.7L395.637 35.4C396.437 32.5333 397.737 29.9667 399.537 27.7C401.403 25.4333 403.57 23.6333 406.037 22.3C408.503 20.9667 411.137 20.3 413.937 20.3C415.137 20.3 416.237 20.4 417.237 20.6C418.303 20.8 419.27 21.0333 420.137 21.3L415.737 39C415.003 38.5333 414.003 38.1667 412.737 37.9C411.537 37.5667 410.27 37.4 408.937 37.4C407.47 37.4 406.103 37.6667 404.837 38.2C403.57 38.6667 402.503 39.3667 401.637 40.3C400.77 41.2333 400.07 42.3333 399.537 43.6C399.07 44.8667 398.837 46.3 398.837 47.9V74.5H382.737Z" fill="#8419D6"/>
</svg>
